<svg viewBox="0 0 24 24" version="1.1" xmlns="http://www.w3.org/2000/svg"><path d="M6.672,15.221l-1.157,0l-0.462,-1.459l-2.115,0l-0.437,1.459l-1.134,0l2.058,-6.442l1.129,-0l2.118,6.442Zm-1.963,-2.549l-0.729,-2.39l-0.716,2.39l1.445,0Z" style="fill:#37474F;"/><path d="M7.23,8.779l2.116,-0c0.577,-0 0.984,0.053 1.218,0.158c0.235,0.105 0.433,0.292 0.594,0.558c0.161,0.267 0.242,0.568 0.242,0.905c0,0.311 -0.069,0.591 -0.207,0.842c-0.139,0.25 -0.318,0.436 -0.539,0.556c0.313,0.111 0.558,0.302 0.736,0.571c0.177,0.27 0.265,0.598 0.265,0.985c0,0.468 -0.113,0.865 -0.338,1.188c-0.226,0.324 -0.493,0.524 -0.8,0.6c-0.214,0.053 -0.711,0.079 -1.49,0.079l-1.797,0l-0,-6.442Zm1.063,1.072l0,1.49l0.703,-0c0.422,-0 0.683,-0.008 0.783,-0.022c0.181,-0.029 0.323,-0.106 0.426,-0.231c0.102,-0.124 0.154,-0.294 0.154,-0.507c-0,-0.191 -0.042,-0.345 -0.126,-0.464c-0.083,-0.119 -0.184,-0.193 -0.303,-0.222c-0.118,-0.029 -0.459,-0.044 -1.022,-0.044l-0.615,0Zm0,2.562l0,1.718l0.991,0c0.434,0 0.713,-0.022 0.836,-0.068c0.124,-0.045 0.227,-0.134 0.311,-0.267c0.084,-0.133 0.125,-0.302 0.125,-0.506c0,-0.211 -0.044,-0.384 -0.134,-0.52c-0.089,-0.136 -0.208,-0.229 -0.357,-0.28c-0.148,-0.051 -0.451,-0.077 -0.909,-0.077l-0.863,0Z" style="fill:#37474F;"/><path d="M12.556,8.779l2.116,-0c0.578,-0 0.984,0.053 1.218,0.158c0.235,0.105 0.433,0.292 0.594,0.558c0.162,0.267 0.242,0.568 0.242,0.905c0,0.311 -0.069,0.591 -0.207,0.842c-0.138,0.25 -0.318,0.436 -0.539,0.556c0.314,0.111 0.559,0.302 0.736,0.571c0.177,0.27 0.265,0.598 0.265,0.985c0,0.468 -0.113,0.865 -0.338,1.188c-0.226,0.324 -0.492,0.524 -0.8,0.6c-0.214,0.053 -0.71,0.079 -1.49,0.079l-1.797,0l-0,-6.442Zm1.063,1.072l0,1.49l0.704,-0c0.421,-0 0.682,-0.008 0.782,-0.022c0.181,-0.029 0.323,-0.106 0.426,-0.231c0.103,-0.124 0.154,-0.294 0.154,-0.507c-0,-0.191 -0.042,-0.345 -0.125,-0.464c-0.084,-0.119 -0.185,-0.193 -0.304,-0.222c-0.118,-0.029 -0.459,-0.044 -1.021,-0.044l-0.616,0Zm0,2.562l0,1.718l0.991,0c0.434,0 0.713,-0.022 0.837,-0.068c0.123,-0.045 0.226,-0.134 0.31,-0.267c0.084,-0.133 0.126,-0.302 0.126,-0.506c-0,-0.211 -0.045,-0.384 -0.135,-0.52c-0.089,-0.136 -0.208,-0.229 -0.356,-0.28c-0.149,-0.051 -0.452,-0.077 -0.91,-0.077l-0.863,0Z" style="fill:#37474F"/><path d="M17.886,15.221l0,-6.442l2.246,-0c0.574,-0 0.984,0.058 1.231,0.173c0.246,0.116 0.448,0.317 0.606,0.602c0.158,0.286 0.237,0.628 0.237,1.027c0,0.503 -0.121,0.909 -0.362,1.217c-0.242,0.307 -0.585,0.501 -1.031,0.58c0.229,0.164 0.418,0.343 0.567,0.538c0.15,0.195 0.353,0.544 0.611,1.048l0.642,1.257l-1.273,0l-0.772,-1.402c-0.277,-0.507 -0.466,-0.824 -0.566,-0.951c-0.099,-0.128 -0.205,-0.215 -0.316,-0.264c-0.112,-0.048 -0.29,-0.072 -0.536,-0.072l-0.22,-0l-0,2.689l-1.064,0Zm1.064,-3.718l0.791,0c0.483,0 0.791,-0.021 0.923,-0.063c0.132,-0.043 0.239,-0.128 0.321,-0.257c0.082,-0.129 0.123,-0.301 0.123,-0.515c-0,-0.205 -0.041,-0.369 -0.123,-0.494c-0.082,-0.124 -0.194,-0.21 -0.334,-0.257c-0.1,-0.032 -0.389,-0.048 -0.866,-0.048l-0.835,-0l-0,1.634Z" style="fill:#37474F;"/></svg>