<svg viewBox="0 0 24 24" version="1.1" xmlns="http://www.w3.org/2000/svg"><title>figure-caption</title><path d="M5.05,21l-0.05,0c-1.1,0 -2,-0.89 -2,-2l0,-0.004l2,0l0,0.004l0.05,0l-0,2Zm3.943,-2l-0,2l-1.943,0l-0,-2l1.943,0Zm2,-0l2.014,-0l0,2l-2.014,-0l-0,-2Zm4.014,-0l1.986,-0l-0,2l-1.986,-0l0,-2Zm3.986,-0l0.007,-0l-0,-0.004l2,0l-0,0.004c-0,1.11 -0.89,2 -2,2l-0.007,-0l-0,-2Zm-13.993,-2.004l-2,0l-0,-1.971l2,-0l-0,1.971Zm16,0l-2,0l-0,-1.971l2,-0l0,1.971Zm-16.007,-5.651l0.007,0l0,1.68l-2,-0l-0,-2.014l1.993,-0l-0,0.334Zm5.993,-8.345l8.014,0c1.11,-0 2,0.9 2,2l-0,7.996l-10.007,0l-0,-7.996l-0.007,0l-0,-2Zm8,1.996l-5.965,0l0,5.979l5.965,0l-0,-5.979Zm-13.993,2.029l-0,1.986l-1.993,-0l-0,-1.986l1.993,-0Zm-1.993,-2l-0,-0.025c-0,-1.1 0.89,-2 2,-2l0.007,0l0,2l-0.007,0l-0,0.025l-2,-0Zm5.979,-2.025l-0,2l-1.972,0l0,-2l1.972,0Z" style="fill:#37474F" /></svg>