<svg viewBox="0 0 24 24" version="1.1" xmlns="http://www.w3.org/2000/svg"><path d="M7.685,15.937l-1.86,-0l0.164,-0.786c-0.355,0.342 -0.705,0.587 -1.049,0.735c-0.344,0.148 -0.733,0.222 -1.166,0.222c-0.752,-0 -1.361,-0.256 -1.828,-0.769c-0.467,-0.513 -0.701,-1.27 -0.701,-2.273c0,-1.162 0.328,-2.213 0.985,-3.151c0.656,-0.939 1.524,-1.409 2.604,-1.409c0.975,0 1.707,0.388 2.194,1.162l0.786,-3.752l1.962,-0l-2.091,10.021Zm-4.533,-2.953c0,0.519 0.131,0.925 0.393,1.217c0.262,0.291 0.585,0.437 0.968,0.437c0.355,0 0.687,-0.122 0.994,-0.366c0.308,-0.243 0.554,-0.616 0.739,-1.117c0.184,-0.502 0.276,-0.982 0.276,-1.443c0,-0.524 -0.141,-0.948 -0.423,-1.271c-0.283,-0.324 -0.609,-0.485 -0.978,-0.485c-0.574,-0 -1.046,0.319 -1.415,0.957c-0.369,0.638 -0.554,1.328 -0.554,2.071Z" style="fill:#37474F"/><path d="M16.599,12.916l-4.922,-0c-0.005,0.077 -0.007,0.136 -0.007,0.177c-0,0.483 0.138,0.873 0.414,1.169c0.275,0.296 0.611,0.445 1.008,0.445c0.652,-0 1.16,-0.338 1.524,-1.012l1.757,0.294c-0.342,0.706 -0.799,1.236 -1.371,1.589c-0.571,0.353 -1.213,0.53 -1.924,0.53c-0.975,-0 -1.768,-0.309 -2.379,-0.926c-0.61,-0.618 -0.916,-1.435 -0.916,-2.451c0,-0.994 0.276,-1.878 0.827,-2.652c0.752,-1.049 1.826,-1.573 3.22,-1.573c0.889,0 1.595,0.275 2.119,0.824c0.524,0.549 0.786,1.318 0.786,2.307c0,0.474 -0.045,0.9 -0.136,1.279Zm-1.655,-1.197c0.005,-0.086 0.007,-0.152 0.007,-0.198c0,-0.538 -0.121,-0.941 -0.362,-1.21c-0.242,-0.269 -0.565,-0.403 -0.971,-0.403c-0.405,-0 -0.769,0.152 -1.09,0.458c-0.321,0.305 -0.539,0.756 -0.653,1.353l3.069,0Z" style="fill:#37474F"/><path d="M22.375,8.677l-0.301,1.436l-1.387,-0l-1.217,5.824l-1.962,0l1.217,-5.824l-1.094,-0l0.301,-1.436l1.093,0l0.158,-0.745c0.127,-0.611 0.248,-1.023 0.362,-1.237c0.155,-0.292 0.386,-0.523 0.694,-0.694c0.307,-0.171 0.71,-0.256 1.206,-0.256c0.602,-0 1.235,0.109 1.901,0.328l-0.383,1.401c-0.469,-0.159 -0.85,-0.239 -1.142,-0.239c-0.223,-0 -0.389,0.07 -0.499,0.212c-0.073,0.091 -0.148,0.33 -0.225,0.718l-0.11,0.512l1.388,0Z" style="fill:#37474F"/></svg>