<?xml version="1.0" encoding="UTF-8" standalone="no"?><!DOCTYPE svg PUBLIC "-//W3C//DTD SVG 1.1//EN" "http://www.w3.org/Graphics/SVG/1.1/DTD/svg11.dtd"><svg width="100%" height="100%" viewBox="0 0 24 24" version="1.1" xmlns="http://www.w3.org/2000/svg" xmlns:xlink="http://www.w3.org/1999/xlink" xml:space="preserve" xmlns:serif="http://www.serif.com/" style="fill-rule:evenodd;clip-rule:evenodd;stroke-linejoin:round;stroke-miterlimit:2;"><path d="M5.05,21l-0.05,0c-1.1,0 -2,-0.89 -2,-2l0,-0.004l2,0l0,0.004l0.05,0l-0,2Zm3.943,-2l-0,2l-1.943,0l-0,-2l1.943,0Zm2,-0l2.014,-0l0,2l-2.014,-0l-0,-2Zm4.014,-0l1.986,-0l-0,2l-1.986,-0l0,-2Zm3.986,-0l0.007,-0l-0,-0.004l2,0l-0,0.004c-0,1.11 -0.89,2 -2,2l-0.007,-0l-0,-2Zm-13.993,-2.004l-2,0l-0,-1.971l2,-0l-0,1.971Zm16,0l-2,0l-0,-1.971l2,-0l0,1.971Zm-16,-3.971l-2,-0l-0,-2.014l2,-0l-0,2.014Zm16,-0l-2,-0l-0,-2.014l2,-0l-0,2.014Zm-18,-4.014l-0,-4.011c-0,-1.1 0.89,-2 2,-2l14,0c1.11,-0 2,0.9 2,2l-0,4.011l-2,-0l-0,-0.011l-14,0l-0,0.011l-2,-0Zm16,-1.972l-0,-2.039l-14,0l-0,2.039l14,0Z" style="fill-rule:nonzero;"/></svg>